<?xml version="1.0" encoding="UTF-8" standalone="no"?>
<svg
   xmlns:dc="http://purl.org/dc/elements/1.1/"
   xmlns:cc="http://creativecommons.org/ns#"
   xmlns:rdf="http://www.w3.org/1999/02/22-rdf-syntax-ns#"
   xmlns:svg="http://www.w3.org/2000/svg"
   xmlns="http://www.w3.org/2000/svg"
   xmlns:sodipodi="http://sodipodi.sourceforge.net/DTD/sodipodi-0.dtd"
   xmlns:inkscape="http://www.inkscape.org/namespaces/inkscape"
   width="100%"
   height="100%"
   viewBox="0 0 2787 2787"
   id="svg2"
   version="1.1"
   inkscape:version="0.91 r13725"
   sodipodi:docname="a.svg">
  <metadata
     id="metadata9">
    <rdf:RDF>
      <cc:Work
         rdf:about="">
        <dc:format>image/svg+xml</dc:format>
        <dc:type
           rdf:resource="http://purl.org/dc/dcmitype/StillImage" />
      </cc:Work>
    </rdf:RDF>
  </metadata>
  <defs
     id="defs7" />
  <sodipodi:namedview
     pagecolor="#ffffff"
     bordercolor="#666666"
     borderopacity="1"
     objecttolerance="10"
     gridtolerance="10"
     guidetolerance="10"
     inkscape:pageopacity="0"
     inkscape:pageshadow="2"
     inkscape:window-width="1371"
     inkscape:window-height="908"
     id="namedview5"
     showgrid="false"
     inkscape:zoom="0.93138458"
     inkscape:cx="415.29983"
     inkscape:cy="481.47936"
     inkscape:window-x="1972"
     inkscape:window-y="30"
     inkscape:window-maximized="0"
     inkscape:current-layer="svg2" />
  <path
     style="fill:#000000;stroke:#000000;stroke-width:1"
     d="m 1416,532 c 27.677,9.02208 60.3749,13.0232 89.0972,21 25.5158,7.30135 94.9721,36.2964 75.4514,23 36.9012,4.3834 102.6486,43.21586 74.4514,26 26.3892,7.39055 95.7702,48.87546 76,32 28.9302,3.73649 39.7179,25.61542 65,33 18.4595,15.87387 80.0357,57.29761 60,43 21.4803,35.81117 84.3029,122.19441 81,114 35.0444,53.39307 100.9898,207.9732 91.3573,177.5015 7.6941,26.8221 56.3856,133.6922 61.4279,163.1661 32.7451,102.8862 57.1037,164.5575 75.691,238.1658 23.1663,73.0731 33.8949,92.619 27.5238,75.7152 22.0612,24.6935 -52.9943,60.3012 -34,53.4514 -12.3849,10.2717 -55.5964,45.3684 -53,44 -15.5577,5.0014 -78.5593,45.3085 -65,37 -33.4906,15.7287 -62.612,51.1794 -55,0.8056 -18.5953,-115.2433 -63.4502,-245.2084 -87,-325.8056 -38.6739,-86.3555 -57.6736,-120.9552 -97,-204 -80.9373,-185.86615 -210.8492,-316.58905 -281,-416 -14.081,-43.40064 -124.0498,-133.21301 -89,-104 -0.8793,-9.48082 -32.0944,-24.4357 -16,-32 z m -26,5 c 21.0458,11.80371 25.9377,39.76137 48.5486,50 11.9714,22.10463 63.5488,52.37731 3.8169,45.35045 -20.4773,-16.55703 -79.6156,-13.6708 -97.8655,-1.17904 -38.8447,26.58849 -38.19,93.00911 -34.2372,82.17904 -20.9111,-20.13409 -42.5233,-52.6566 -69.6142,-79.25879 C 1199.6267,593.80975 1155.4896,561.70437 1157,564 c 29.4107,-6.256 59.6502,-11.6831 86,-21 51.7926,-11.15094 65.1898,-13.70191 110.7718,-9.13142 z M 958,706 c 21.96827,10.03173 68.4115,59.58851 47,49 9.3795,23.28716 57.895,72.77171 45,53 12.8989,19.10109 58.1238,69.87619 42,54 10.9417,22.05828 32.6537,33.34628 39,60 -32.766,-5.79149 -61.8598,0.58963 -95.6458,6 -28.9339,5.51754 -55.96161,12.94118 -61.3542,42 -14.22626,18.95661 -47.75707,84.9744 -33,66.5486 -11.07598,12.7906 -62.19068,-33.779 -48,-22.5486 -34.38037,-37.22954 -60.89007,-59.39543 -103.5486,-91 -8.13073,-8.17077 -55.10562,-43.93599 -41.9028,-16 11.96209,11.96207 25.51168,23.84865 53.4514,42 55.10534,50.02724 71.76244,57.5709 53,44 29.93161,21.2238 60.11044,54.9896 49,48 16.99653,16.3368 63.62631,69.707 45,55 6.45321,27.5468 33.04533,34.9547 37,65 15.1199,18.2134 49.2354,84.098 37,63 22.7842,18.9491 -22.45912,23.6222 -26,11 -65.53351,-18.9064 -216.69052,-11.3018 -222.20017,-17.3175 C 756.80997,1209.0668 745.76198,1166.5775 741,1166 718.05904,1121.5077 615.83345,1027.3939 636.30892,1038.5479 627.52885,1020.9182 603.52076,1018.8053 628,1052 c 9.83461,21.7293 35.92144,29.0429 43,55 19.28273,13.3839 55.27009,75.3966 44,54 15.7135,17.6198 57.2259,76.1074 42,58 -62.99669,0.4458 -125.97502,1.5169 -189,1 -29.46789,7.8654 -67.32601,7.3407 -102,10 -32.68984,17.9648 -107.29617,9.0693 -86,13 -21.44324,23.4606 -58.48578,10.0978 -18,-7 15.70431,-17.1452 70.70621,-60.6919 50.5486,-48 20.62936,-11.8544 27.27255,-37.695 53.4514,-44 13.61986,-20.2297 71.02871,-64.3694 53.5486,-48 18.21241,-12.6047 71.70957,-51.559 53.4514,-39 26.51078,-8.4247 98.16992,-73.54574 60,-42 19.6684,-12.9983 62.7105,-67.95616 48,-50 20.24186,-12.09147 54.26498,-75.06835 44,-53 18.67448,-15.32552 60.30911,-75.69089 42,-60 13.45623,-19.54377 52.4645,-79.5355 39,-60 17.43439,-16.88577 25.12375,-39.49295 48,-55 16.69336,-15.82284 71.57553,-58.48927 50.5486,-47 m 44.66288,-10.08006 C 956.90222,618.8191 1118.4437,575.18053 1146,569 c 12.6789,-5.51741 109.71,114.52604 98,99 17.0964,15.41982 60.754,69.31083 49,48.5486 -81.3155,-8.33343 -141.0605,-9.54689 -187.6495,112.1085 -10.0369,3.80788 -53.3143,-54.4272 -44.0877,-38.42473 -15.0218,-16.7953 -49.9497,-63.7493 -37.7371,-44.14476 -12.7148,-11.95051 -65.35893,-64.83636 -63.65712,-60.48187 m 570.08762,30.09516 c 24.1588,12.50178 56.9597,64.85715 44.0438,43.2991 14.1521,18.18119 59.3882,69.94518 44,53 -13.9426,12.14822 -25.0046,8.3095 -37.6856,8.16262 -13.536,-0.1568 -28.6257,3.0199 -41.4886,5.70388 -19.7431,4.11961 -40.7115,27.26897 -51.8258,57.1335 -11.4855,33.83611 -17.4146,48.14285 -37,11 -24.1972,-30.51195 -38.6899,-64.0829 -51.413,-97.54739 -0.3575,-39.41424 24.198,-85.19263 60.6074,-81.45261 30.9217,0.81301 30.7599,1.02565 70.7618,0.7009 z M 1943,780 c 23.4902,12.6927 61.7327,10.63305 87.5486,21 18.4391,1.72138 33.9958,3.29824 46.4473,11.25808 7.5928,4.85382 15.4219,12.54473 18.0041,22.74192 19.8454,13.48794 51.878,81.45532 42,58 5.7961,23.53819 22.5525,41.78849 32,70 6.2162,10.1222 18.692,40.7036 23.2653,43.3275 5.3831,3.0885 -5.7536,-4.1246 -24.3625,0.6725 -29.7193,-16.24069 -86.6833,30.4247 -72.9028,22 -11.7594,8.1776 -21.0182,28.7825 -28.3934,26.6036 -2.2645,-0.6689 -3.3952,-6.4815 -10.6066,-23.7008 -9.885,-21.5264 -14.2773,-47.21411 -27,-73.9028 -14.7523,-18.9454 3.9115,-3.29925 -33,-66.5486 -4.9563,-17.06894 -43.4,-74.01775 -37,-62.4514 -22.0845,-40.35374 -56.1463,-53.14323 -16,-49 z m -574,22 c 14.5281,19.80519 57.4124,79.92092 43,60 15.8553,17.14467 49.0607,77.72024 32.5181,61.26284 -30.6547,8.53376 -45.1608,-12.54431 -78.0812,-9.80583 C 1316.0992,917.64433 1262.1233,943.31985 1249,1003 c -2.7746,16.4299 -9.4471,35.4393 -9.4471,35.4393 L 1212,1014 c 0,0 -50.4579,-83.60692 -39,-61.5486 0.3442,-11.38287 -18.8931,-22.2797 -25.1752,-44.05714 32.16,-103.32531 57.0326,-111.71749 136.2385,-124.90701 21.3498,-3.55519 58.0204,8.08576 84.9367,18.51275 z m 844,48 c 22.6427,14.16158 51.2281,17.4359 77.5486,32 25.1473,7.00314 83.6905,44.91136 63.4514,33 17.9586,2.85236 32.4179,10.68006 45.2225,18.68636 8.3202,5.2023 14.2358,11.33292 25.7775,13.31364 15.8019,18.19805 54.7933,81.2067 42,60 6.3098,28.0235 16.1197,52.547 27,76 2.2055,31.3431 15.7118,51.3854 18,82.6458 7.5505,29.4819 12.1114,59.351 16,95.0972 0.5575,5.1248 1.3534,4.0968 -0.9804,8.2867 -14.0407,25.2075 -31.8259,26.4314 -49.0196,39.9703 -4.3246,3.4053 -33.5958,29.6195 -53,44 -34.822,25.8066 -75.7151,68.3437 -51.2855,14.1406 3.2471,-33.024 10.2479,-77.4649 7.2855,-108.2378 -1.8715,-38.7898 -6.2685,-74.4585 -16,-99.9028 -3.9897,-31.7518 -15.166,-55.1807 -25.26,-76.99 -8.0321,-29.6997 -14.8563,-54.6317 -29.74,-75.01 -12.1401,-23.72278 -23.1873,-50.0743 -37,-66.5486 -13.7674,-18.71635 -51.8928,-78.04242 -39,-58.4514 2.0111,-9.28686 -40.7098,-34.0023 -21,-32 z m -519,72 c 10.5707,22.7626 27.9364,38.73024 37,63 14.4438,24.2014 31.0935,38.667 39,65 -45.8447,-8.7243 -82.6241,-0.9521 -111.3424,27.295 -17.7985,17.5065 -31.2149,48.6633 -45.6576,71.1564 -38.9577,-75.2039 -79.9475,-120.1076 -101.6495,-178.95619 C 1511.9238,957.55386 1534.23,902.61043 1537,906 c 28.4388,-46.24752 72.2656,-45.41028 99.0097,-35.51525 23.6705,8.75788 60.9179,59.35527 57.9903,51.51525 z m 1061,-18 c 4.2129,27.58667 17.6247,49.8389 21,80 10.1721,22.604 16.2823,65.4602 6,93 -3.0705,-14.3991 -65.2743,53.1627 -55,37 -21.163,11.1704 -68.4479,60.8855 -53,44 -20.3617,12.4878 -75.3002,56.0979 -55.5486,43 -6.2007,7.0291 -59.6613,38.4746 -53.4514,44 -7.1531,-0.05 -7.2395,7.2255 -8.2855,8.1072 -9.3676,7.8956 -15.5791,-71.9696 -18.7145,-69.6558 -3.9163,-31.2341 -9.8886,-60.4123 -21,-84.4514 -1.9079,-31.6083 -33.0891,-100.97572 -23,-77.5486 -3.7769,-14.3622 -18.9706,-60.56752 -25.4514,-63.4514 22.9235,-12.10894 54.1391,-15.9257 83.0972,-22 3.2525,2.38345 94.5224,-17.48165 83.5208,-12.14301 36.2183,-2.66358 67.6747,-13.77958 100.4792,-19.85699 z m -1603,40 c 13.5011,19.1656 51.5586,79.108 39,59 16.588,17.412 60.2174,75.7826 43,59 8.2049,25.9779 52.9011,83.8304 37.5486,65 18.8077,38.0607 35.3884,73.6226 32.4514,66.5486 11.8865,21.9307 24.7541,42.8802 32,69.4514 35.5454,63.8991 54.651,81.1501 60,141 27.3563,36.7407 -8.3255,31.3201 -27.5486,10 -19.493,-13.1737 -80.2945,-50.3722 -60,-38 -19.6004,-13.8834 -87.3519,-46.5833 -63.4514,-37 -17.7106,-15.6227 -40.6018,-26.0648 -66,-34 -22.9558,-11.0442 -44.8238,-23.1762 -76,-26 -19.6838,-13.6495 -54.4013,-12.2654 -63,-37 -5.2041,-49.3944 -100.85043,-170.6969 -71,-131 -3.11959,-38.7863 4.73209,-66.6012 10,-97 19.51896,-15.18011 13.40941,-55.98872 50.0972,-54 27.8929,-15.07465 75.635,-10.30024 117.9028,-11 l 0,-5 z m 200.7372,1.64955 c 58.2073,-6.76463 84.7236,5.45661 108.4914,18.08761 13.4194,16.41078 52.0086,64.38594 50.6838,59.65714 16.1466,19.8338 17.7087,46.0362 37.9562,66.0438 11.925,25.3854 43.8358,85.2942 32.8248,53.6057 18.0199,38.7609 -4.043,21.2094 -52.9183,4.6495 -27.5387,-22.3765 -85.9913,-3.2653 -75.3237,-4.9123 -13.1931,-9.1287 -75.9944,88.5277 -51.6266,57.5695 -6.8641,27.4692 -21.7129,37.5594 -23.8686,69.7371 -16.7355,12.3664 -18.4013,-3.6882 -26.9135,-18.0954 -11.6656,-19.744 -26.8967,-46.7307 -37.0427,-66.5408 -20.3396,-44.311 -53.6583,-86.3283 -52.3025,-116.7601 9.36,-32.2026 24.1203,-69.2369 46.3025,-93.6913 5.7062,-18.49426 23.2049,-25.55198 43.7372,-29.35045 z m 823.5694,98.08765 c 16.1006,4.5254 24.3021,7.6793 33.0821,13.6268 9.949,18.9016 21.5859,36.8891 31.3735,55.8749 7.3094,31.6118 40.0101,118.9187 56.3567,155.9767 6.4597,8.3475 2.3207,-3.1846 6.1682,17.0326 2.3431,12.3124 3.2926,9.1537 -5.3843,11.7518 -27.5274,-16.113 -75.9511,-3.5902 -72.3554,-4.9047 -34.507,18.0145 -69.262,73.2125 -56.5474,54.9047 -7.1726,-3.5863 -16.1522,-47.9372 -11.2383,-25.2884 -4.68,-9.4561 -47.5324,-156.1401 -59.908,-170.328 -29.4251,-52.8006 23.7953,-90.5713 13.1463,-79.3836 7.7361,-16.9288 40.4947,-29.5798 65.3066,-29.2628 z m -396.0075,93.5618 c 10.4399,1.0497 26.7093,6.2767 32.9803,9.518 12.7499,6.5898 10.3373,14.7836 16.8007,31.6802 8.1508,25.333 40.2314,84.1456 44.7885,113.0723 17.0669,17.9655 16.9618,49.9716 25.9562,76.0096 11.1565,10.6701 -63.4578,-7.7685 -40.922,-3.5791 -26.5381,-9.4428 -57.2761,-13.5958 -67.9028,11 -20.5371,14.0115 -29.5467,39.5505 -34,69.6458 -33.4507,0.474 -45.3915,-141.9621 -63,-129.6458 -2.2016,-30.1317 -26.4115,-50.7809 -21.9562,-87.5695 9.0612,-47.8893 8.5834,-43.0458 23.3867,-63.1314 14.5305,-21.5343 19.8014,-27.277 51.9679,-31.1753 z M 671,1230 c -8.52199,28.7644 -9.29325,136.1506 -13.08761,170.2704 -43.44324,-5.4114 13.79183,3.7141 -30.65538,-2.2704 -44.53768,-1.9235 41.01337,-0.226 -37.47604,1.832 11.47789,-27.7582 0.98638,-146.3771 16.76763,-169.832 z m 61.74519,161.6473 c -22.81472,0.191 -37.53174,8.9853 -57.52276,6.3527 -13.07659,15.613 4.04054,-63.1234 0.77757,-93.6458 7.4642,-42.605 -0.83068,-66.3774 5.7416,-73.1385 5.0465,-5.1914 7.32513,-4.4033 20.45279,-1.2157 L 823,1230 c 30.47957,5.8538 60.90383,11.7628 97,12 46.38099,1.9346 7.92333,23.1085 10,56.6458 -35.44394,62.8267 -13.24846,131.7493 -94.0972,106.3542 -9.75115,-52.7821 40.7506,-154.1355 8.0972,-163 0.88716,38.2051 -7.56116,64.3599 -16,93.5486 -10.31101,27.4205 5.27124,80.7342 -43.74299,69.4514 m -26.99606,-176.0019 c -6.59601,29.7373 -7.25772,44.0109 -9.4781,78.1239 -5.00033,13.3553 -0.68934,47.5332 -5.63065,84.7447 -0.3627,2.7314 2.97832,7.371 5.41162,-7.0707 10.31012,-26.6575 8.7178,-87.6592 17.04381,-116.3008 -0.38908,-13.058 6.04639,-40.5563 -7.34668,-39.4971 z M 584,1236 c -10.96198,43.2439 -2.18327,106.2286 -5,157.6178 -5.21055,16.3871 -4.5686,-0.7103 -53.88502,6.7268 -5.73672,0.8652 -10.38542,-17.5527 -6.11498,-24.8932 0.26482,12.3428 -23.15916,-88.9366 -21,-85.4514 -9.29183,-41.1174 -12.83684,-45.9589 26,-54 z m 1077,42 c 21.1372,39.6078 45.9884,106.7725 60,141 30.2598,36.8819 -10.0361,14.8149 -44,16 -34.7579,-5.3593 -65.7324,-0.9693 -94.0972,11 -99.1633,73.413 -31.1852,99.7304 -99.9028,50 -13.4811,-20.0351 -69.368,-64.6967 -55,-45.5486 -6.3625,-28.4817 18.0562,-97.9835 12.96,-74.4514 16.0071,-68.0958 23.3216,-113.5367 81.1372,-124 40.0053,-2.8761 126.6977,-5.7421 138.9028,26 z M 477,1248 c -1.35626,49.7553 42.6111,163.6821 25.57836,150.4644 -3.20818,6.3032 -19.77381,14.0247 -30.48699,12.5794 C 455.92431,1419.0488 432.50725,1341.1016 438,1350 c -32.74399,-73.2996 -19.98663,-48.0134 -27,-75 -25.80132,-34.0395 42.52076,-23.7743 66,-27 z m 497,5 c 29.6496,7.5657 60.0941,14.3364 90.6458,21 14.9044,13.0788 69.4891,7.4672 51.3542,37.5486 -13.5436,19.2736 -46.1148,85.1537 -34,64.4514 -12.6884,19.8914 -48.4543,79.6644 -37,60 -23.5267,-9.6312 -77.30447,4.3943 -60,-32 14.66653,-19.8497 44.5897,-93.4751 32,-71.5486 4.6406,-8.4043 22.0324,-62.3419 17.2807,-66.1117 -1.3987,-1.1097 -6.6229,17.3813 -12.2807,23.6603 -16.2559,17.2776 -21.0794,46.2317 -32,70 -18.92168,16.8098 0.0336,71.4965 -47.19439,60 -42.23069,2.1356 -31.72629,-28.0261 -17.80561,-54 6.28657,-45.6714 31.48449,-98.8443 23,-77.5486 5.67414,-16.8251 -4.85387,-44.5089 26,-35.4514 z m -589,6 c 8.31139,26.3877 21.93921,47.4589 26,78.0972 10.63302,22.3401 39.29848,91.7499 27,72.9028 -25.24648,14.3421 -67.04731,10.9112 -102,17 -19.8944,13.9022 -101.99264,35.9082 -82,21 -55.8289,16.7534 44.51166,-144.2418 7.30665,-71.9867 C 291.97555,1317.562 314.85419,1320.0371 293,1330 c 6.2374,-28.0959 64.7337,-72.5996 48,-55 12.12439,-8.5692 27.45816,-12.314 44,-16 z m -103,11 c 53.54929,-5.7717 -6.28425,55.4699 11,37 -18.82981,14.1702 -48.4163,83.5837 -39,60 -12.8226,20.8441 -26.70887,40.6245 -31,70 -34.12406,-3.1383 -66.50181,18.4275 -93.5486,6 -23.14676,-10.337 -38.676257,-28.2913 -63.4514,-37 -3.317262,-10.1909 -46.416656,-51.5998 -45,-50 -27.7649353,-27.6267 -21.066501,-29.1336 11,-44 21.451117,-12.5489 96.89954,-39.1005 76,-26 34.4569,-3.9088 65.06447,-11.667 99.0972,-16 z m 865,30 c 20.0732,13.443 87.9649,46.0999 66.5486,34 1.2385,14.3559 -37.9773,47.9953 -28.5486,47 -7.8418,26.6744 -27.9947,41.0377 -37,66.5486 -16.3593,20.4667 -97.9305,-11.9145 -77.5486,-6.5486 -21.0915,-10.2087 29.9537,-67.2125 22.5486,-54 9.0275,-23.822 25.0797,-40.6194 33,-65.5486 2.9619,-11.5028 2.5923,-26.0583 21,-21.4514 z m 1137,14 c 10.252,3.6027 22.1816,1.2697 23.0879,11.1694 3.8768,42.3479 13.0284,38.7437 8.9121,64.2194 1.5117,7.2672 4.0757,16.5817 -0.456,21.6433 -28.3906,31.7096 -59.1911,50.1139 -41.544,38.9679 -16.6625,15.7097 -34.546,24.368 -61.4762,33.8334 -0.6069,-9.4004 -23.7831,-62.886 -25.5238,-64.8334 -6.5271,-18.1541 -10.4556,-28.7569 -7.9792,-38.1255 2.6081,-9.8671 7.8035,-15.2338 14.804,-29.7431 14.2513,-19.8266 40.6901,-43.1226 80.4668,-37.1314 l 6.5486,0 z m -1045,30 c 17.0235,15.3098 80.8485,48.4848 60,37 -12.1059,20.8941 -59.1078,72.8922 -44,55 -7.6144,21.0924 -49.1101,51.1545 -47,42 -28.2432,-4.8604 -68.9669,-7.4145 -45,-37 0.5537,-11.4415 60.0461,-69.2683 45,-55 24.0171,-25.1757 23.5367,-41.047 31,-42 z m 76,48 c 17.6586,15.008 81.4039,49.2627 60,38 20.1952,30.3242 -66.8887,78.0766 -70,92 -18.0308,-16.4854 -88.9055,-49.1593 -71,-32.5486 9.25,-23.2338 61.8166,-68.1186 44,-53.4514 11.1292,-14.594 19.6158,-36.5404 37,-44 z m 539.6934,19.9124 c 18.8706,2.8771 62.5653,6.2759 71,35.1752 9.3882,24.9451 26.3678,47.5179 28.3066,79.9124 11.9319,25.7348 15.7547,59.5787 16,97 20.2653,27.1234 -64.5761,49.7114 -44.0972,44 -22.998,10.8192 -44.6365,22.9978 -69.4514,32 -10.7032,21.3688 -34.6044,-56.6352 -53.8547,-125.8157 C 1790.9118,1532.1921 1776.804,1508.5916 1787,1500 c -2.1591,-36.1591 34.0934,-106.0818 21,-85.1752 7.0013,-8.5321 37.5474,-17.4744 46.6934,-2.9124 z M 281,1453 c 2.87128,32.1287 7.6562,62.3438 18,87 -2.4025,30.3396 21.2985,61.905 0,81 -26.36848,8.1477 -90.45259,47.6122 -71,32.5486 -26.77913,6.2209 -46.75587,19.2441 -71.5486,27.4514 -31.1104,22.0438 -45.42697,1.4216 -25.4514,-27.5486 2.08784,-33.8362 18.40078,-52.8789 16,-92.1944 20.0052,-16.7795 -15.35431,-88.9238 18.0972,-92.257 35.58973,-3.0445 73.64491,-3.6236 99.9028,-16 z m 1131,4 c 20.8576,14.367 45.3012,23.8787 16,44 -20.7881,13.5776 -20.2319,48.4996 -50.0972,53 -29.3832,-0.6577 -50.1016,-13.3554 -41.9739,-24.0594 26.5541,-34.9714 66.1611,-74.627 61.0711,-67.9406 10.3491,1.8884 -0.6635,-10.3171 15,-5 z m 328.0075,20.781 c 0,0 22.4027,26.4226 24.9925,51.3162 12.6311,21.1861 38.4173,96.8512 27,74.4514 3.7816,32.2832 18.3124,53.8172 16,92.1944 16.7356,28.9201 -29.3935,33.0217 -9.9069,23.9942 -17.0777,5.8627 -27.75,2.2046 -139.8945,37.2436 -7.7741,2.4289 -9.5696,0.805 -13.6443,9.5749 -20.1198,43.3036 -80.4176,175.8598 -83.8792,156.6772 -0.8853,-4.9057 -54.2604,-25.8163 -41.3439,-39.5154 22.1533,-23.4955 35.8317,-43.6023 47.4616,-58.3027 49.042,-61.9902 73.0775,-52.3841 73.7691,-64.7139 6.9982,11.7836 11.1415,-145.3454 4.6571,-114.2057 -10.2753,-21.0166 -26.706,-42.9882 -49.219,-54.4952 -6.3202,-25.2023 -41.1304,-44.2627 -34.3327,-57.5403 41.8568,-81.7569 178.3402,-56.6787 178.3402,-56.6787 z M 1462,1490 c 18.0705,16.2629 36.0756,32.5911 60,43 -9.2165,23.4502 -37.4657,27.8677 -44,54 -24.2689,19.8493 -89.9553,-25.3492 -66.5486,-15 -21.4131,-18.0441 31.8554,-71.7928 22.5486,-55 10.7238,-6.5495 12.2762,-26.3852 28,-27 z m 76,58 c 14.8415,18.008 60.1728,71.2254 48,50.5486 -11.9079,20.5759 -57.8899,72.0453 -43,54.4514 -11.8578,-0.064 -74.2826,-52.5061 -55,-39 -21.1328,-12.6091 38.0852,-62.0128 27,-50 4.5472,-6.6759 17.747,-9.4168 23,-16 z m 65,60 c 12.4851,23.5797 34.7172,37.4124 32,76.1944 6.9256,29.7155 -26.826,62.1061 -39,36.257 -12.5633,-21.2862 -35.5384,-32.1607 -42,-59.5486 13.5103,-18.124 55.0601,-71.4769 42,-52.9028 l 6.5486,0 z m -1267,67 c 4.55977,29.7736 19.05163,49.615 27,76 1.38567,17.2201 46.53416,50.725 14.9028,58 -15.76044,14.5405 -70.05056,51.1532 -51.9028,39 -20.41399,19.0807 -17.0143,8.8742 -50,48 -3.99943,9.0732 -42.80924,31.8262 -53,44 -4.57307,4.882 -25.3073,24.0332 -23.10382,21.2453 C 202.07315,1958.491 188.93312,1948.6326 185,1930 c 1.89056,-3.6753 -34.99649,-83.3292 -27,-76 -3.74801,-7.3214 -16.3996,-14.1578 -17.38137,-50.0776 -0.13943,-5.1013 7.81066,-7.9658 17.38137,-9.9224 12.82204,-19.8446 73.87175,-56.7949 55,-43 17.45331,-14.5467 33.29444,-30.7056 58,-38 16.79076,-16.8558 43.2664,-26.3316 65,-38 z m 81,168 c 8.83676,24.0128 50.52756,80.8706 39,59.5486 19.98598,12.1645 69.54817,59.0537 48,48.4514 -4.83167,29.3512 -16.05394,52.3118 -26,76.5486 -11.82409,21.3588 -20.23398,46.1317 -28,71.5486 -11.6093,10.5641 -14.17986,75.9147 -32,39.9028 -20.05201,-13.948 -34.98822,-33.0118 -60,-42 -19.71795,-12.6154 -40.27924,-24.3874 -64,-33 -26.34881,-10.1819 -43.01159,-28.2811 -18,-53 6.14556,-4.7147 44.9134,-51.7442 45,-50 10.2923,-23.041 56.59396,-76.7394 42,-58 14.01668,-16.9833 63.08173,-60.9183 44,-49 -1.23998,-5.5854 5.66142,-10.6779 10,-11 z m 964,122 c 5.1399,12.7511 32.71,33.2013 27,65 -12.8399,-2.6837 -61.4816,56.0494 -53,45 -21.5533,11.5421 -63.792,64.5262 -49,47 -13.5061,4.9823 -33.2885,33.2941 -48.4951,36.1943 -5.9291,1.1307 -4.0815,-7.7975 -11.5049,-14.1943 -5.1772,-21.8994 -22.7499,-78.3379 -22,-69 25.6823,-8.6405 88.1808,-45.4484 66.5486,-34 26.2263,-23.3876 69.7145,-72.9453 90.4514,-76 z m -827,30 c 16.60003,16.7333 76.6789,56.6544 58,42 12.14098,10.8865 40.94327,43.8037 49,33 -6.91801,27.4477 -13.89986,54.8316 -21,82.0972 -7.22707,23.112 -45.74203,64.6766 -22.5486,73.9028 -23.7608,-12.0563 -48.16332,-23.4709 -86.4514,-21 -46.01508,-0.088 -27.09266,-40.7063 -21,-72.6458 10.62409,-42.6444 24.73167,-89.5607 21,-80.9028 7.73624,-17.4973 4.3011,-49.4121 23,-56.4514 z m 146,81 c 20.24971,14.116 49.55211,19.1794 77.0972,26 25.00575,10.478 59.60924,11.3584 85.4514,21 30.11715,-2.5004 -9.02023,54.3373 5.4514,89.5832 10.04138,45.572 -83.07747,14.4809 -60,25.4168 -47.07556,1.1397 -99.98289,-3.5524 -139.64579,5 -30.74872,-16.7297 1.47207,-66.9434 -1.35421,-95.6458 12.84712,-20.6367 -0.46592,-67.4335 29.0972,-71.3542 z m 433,25 c 22.2399,-4.0029 36.8917,18.7909 47,43 28.4329,46.8179 -208.88431,85.6386 -200.5486,81 -25.21925,13.0234 -48.29873,27.2026 -53.4514,-10 -6.53939,-27.4606 -39.99968,-96.0003 -21,-81 16.04258,-21.513 61.55886,-11.3171 95,-17 34.8518,1.3224 127.832,-17.2417 133,-16 z"
     id="選択範囲"
     inkscape:connector-curvature="0"
     sodipodi:nodetypes="ccccccccccccccccccccccccscscccccccccccccccccccccccccccccccccccccccccccccccccccccccsscccccccccccsccsccccccccscccccsccccsccccsssscccccccccccscccsccccccccsccccccccccccccccccccccccccccccccccccsccccccccsccccccccsccccccccccccccccccccsccccccccccscccccsccccccccccccccccccccccccccscccccccccccccccccccccccccccccccccccscscccscccccccccccccccccccccccsccccccccccccccccscccccccssssscccsccccccccccccccccccccccccccsccscccccccccccccccccccccsccccccccccccccccccccccccccccc" />
</svg>
